<!-- icon666.com - MILLIONS vector ICONS FREE --><svg viewBox="0 -16 512 512" xmlns="http://www.w3.org/2000/svg"><path d="m217.398438 480h204.601562v-60h-153.601562l-94.5-94.5 21.300781-21 76.800781 76.800781 42.300781-42.601562-128.699219-128.699219h-185.601562v150h75.800781zm0 0"></path><path d="m392 180h90v180h-90zm0 0"></path><path d="m302 283.976562v-103.976562h-90v13.976562zm0 0"></path><path d="m452 45c0-24.8125-20.1875-45-45-45-24.621094 0-46.316406 12.085938-60 30.464844-13.683594-18.378906-35.378906-30.464844-60-30.464844-24.8125 0-45 20.1875-45 45s20.1875 45 45 45h45v223.976562l30 30v-253.976562h45c24.8125 0 45-20.1875 45-45zm-165 15c-8.277344 0-15-6.722656-15-15s6.722656-15 15-15c19.554688 0 36.238281 12.539062 42.4375 30zm120-30c8.277344 0 15 6.722656 15 15s-6.722656 15-15 15h-42.4375c6.199219-17.460938 22.882812-30 42.4375-30zm0 0"></path><path d="m407 120h-15v30h120v-60h-45.382812c-13.707032 18.105469-35.214844 30-59.617188 30zm0 0"></path><path d="m302 120h-15c-24.402344 0-45.910156-11.894531-59.617188-30h-45.382812v60h120zm0 0"></path></svg>